# Blender v3.1.2 OBJ File: 'WeirdThingSculptTest.blend'
# www.blender.org
mtllib GrumbloFigure.mtl
o Icosphere.001
v 0.818389 1.646313 0.336862
v 0.846926 1.199708 -0.419286
v 0.738377 2.383986 0.384144
v 0.589770 2.039061 -0.837294
v 0.701267 1.807602 0.736533
v 0.287746 2.224133 0.900533
v 0.057855 2.573587 1.254384
v -0.753880 1.066305 0.313394
v -0.193930 1.178856 0.865021
v 0.560844 2.526626 0.458944
v -0.128728 2.776008 0.023783
v -0.113845 2.739458 0.332249
v -0.689595 2.358468 0.443681
v -0.680500 2.451692 -0.316761
v -0.138337 2.918719 -1.096207
v -0.224134 2.723087 -0.367105
v 0.017216 2.741786 -0.313528
v -0.069397 2.969233 -0.835046
v 0.268731 2.631099 -0.440443
v 0.121941 2.978181 -0.831759
v 0.355876 2.523321 -0.472872
v 0.063593 2.813241 -1.214653
v 0.068154 2.790681 -0.959612
v 0.057855 2.573587 -1.254384
v -0.481978 2.677382 -0.013551
v -0.364365 2.638760 -0.507659
v -0.692403 2.082725 -0.744892
v -0.352852 2.428277 -0.837704
v -0.160422 2.743690 -1.185514
v -0.672336 1.788818 -0.842170
v -0.683554 2.508201 0.144363
v -0.880593 2.081810 0.266659
v -0.871666 2.124840 -0.292478
v -0.310802 2.686012 0.457205
v -0.369214 2.611367 0.578845
v -0.046801 2.966748 0.771489
v -0.739277 2.079787 0.681576
v -0.138336 2.918719 1.096207
v -0.351943 2.435544 0.834796
v -0.160422 2.743690 1.185514
v 0.120366 2.715569 0.315775
v 0.453915 2.568713 0.265127
v 0.121941 2.978181 0.831759
v 0.258669 2.722421 -0.027744
v 0.063593 2.813241 1.214653
v 0.320355 2.545063 0.439764
v 0.564421 2.524342 -0.199032
v 0.560844 2.526626 -0.458943
v 0.512108 2.380579 -0.721405
v 0.340635 2.311917 -0.768664
v 0.313335 2.114002 -0.891341
v -0.193930 1.178856 -0.865021
v -0.812689 1.574693 -0.684726
v -0.899236 1.687289 0.000002
v -0.872140 1.616593 0.553237
v -0.862618 1.278944 0.461634
v -0.138696 2.108492 1.034443
v -0.182730 1.420302 0.976623
v 0.068155 2.790681 0.959610
v 0.351925 2.341832 0.745071
v 0.512456 2.379391 0.721920
v 0.865401 1.787019 0.583636
v 0.773455 2.291739 0.525934
v 0.158748 2.020694 -1.001034
v -0.139009 2.107642 -1.034149
v 0.318185 1.511138 -0.964952
v 0.540039 1.710908 -0.911611
v -0.191173 1.442976 -0.977944
v -0.891063 1.399216 -0.408983
v -0.724011 1.249743 -0.637463
v -0.830221 1.171513 -0.318703
v -0.591269 1.048978 -0.547065
v -0.694717 1.021981 -0.288424
v -0.706102 1.733481 0.824172
v -0.600817 1.245296 0.713641
v -0.575610 1.027171 0.524169
v 0.158748 2.020694 1.001034
v 0.368184 2.046955 0.896504
v 0.583311 1.656046 0.898322
v 0.589771 2.039061 0.837293
v 0.318186 1.511139 0.964952
v 0.785100 2.325370 -0.487856
v 0.924792 2.117097 -0.299996
v 0.928597 2.098822 0.304642
v 1.119146 1.951358 0.001796
v 0.849142 1.797976 -0.606945
v 1.050170 1.725200 -0.047099
v 0.639730 1.777564 -0.765972
v 0.696068 1.675579 0.600799
v 0.829525 1.622344 -0.234478
v 0.769688 1.663830 -0.506431
v 0.707579 1.408452 -0.754572
v 0.307146 1.038025 -0.729778
v 0.095727 1.200513 -0.880237
v 0.013505 0.889888 -0.573220
v -0.129782 0.807463 -0.266383
v -0.302549 0.810774 0.067908
v 0.054361 0.859804 0.529293
v 0.130901 1.120324 0.825771
v 0.261416 0.928334 0.582862
v 0.786419 1.345581 -0.453423
v 0.801507 1.089380 0.114496
v 0.333535 0.875743 -0.322078
v 0.792683 1.366251 0.447144
v 0.491903 1.209840 0.761212
v 0.833835 1.243519 0.516252
v 0.115801 0.772150 0.067360
vt 0.443127 0.437655
vt 0.455720 0.394478
vt 0.478538 0.414991
vt 0.410387 0.380787
vt 0.496292 0.381891
vt 0.458804 0.338182
vt 0.484992 0.361236
vt 0.518244 0.356381
vt 0.393170 0.328607
vt 0.448850 0.328491
vt 0.514186 0.334194
vt 0.489087 0.318003
vt 0.413729 0.306275
vt 0.610202 0.415431
vt 0.648241 0.439483
vt 0.630232 0.455794
vt 0.626328 0.391733
vt 0.671491 0.399709
vt 0.587347 0.382311
vt 0.583610 0.361119
vt 0.686041 0.344255
vt 0.624575 0.339592
vt 0.584838 0.337384
vt 0.558359 0.332651
vt 0.547967 0.315324
vt 0.592352 0.285356
vt 0.724978 0.313620
vt 0.728231 0.285285
vt 0.750786 0.347961
vt 0.785638 0.396099
vt 0.832637 0.405555
vt 0.817103 0.443502
vt 0.793641 0.348423
vt 0.840630 0.347101
vt 0.862021 0.381773
vt 0.880149 0.342448
vt 0.818143 0.299732
vt 0.875147 0.298679
vt 0.913063 0.300197
vt 0.081348 0.443361
vt 0.102367 0.403480
vt 0.097079 0.459517
vt 0.065172 0.416251
vt 0.048505 0.385308
vt 0.140091 0.382249
vt 0.128037 0.406777
vt 0.100649 0.378244
vt 0.036840 0.345013
vt 0.143663 0.361119
vt 0.103109 0.339981
vt 0.142435 0.337384
vt 0.168915 0.332651
vt 0.179882 0.315324
vt 0.134871 0.285404
vt 0.249453 0.424467
vt 0.258109 0.406559
vt 0.285864 0.435282
vt 0.276340 0.377591
vt 0.323219 0.377828
vt 0.234010 0.382439
vt 0.242282 0.361236
vt 0.311550 0.338517
vt 0.209030 0.356381
vt 0.274332 0.327227
vt 0.213088 0.334194
vt 0.238187 0.318003
vt 0.313545 0.306275
vt 0.430376 0.182784
vt 0.476337 0.227425
vt 0.390186 0.231926
vt 0.401706 0.253079
vt 0.453950 0.274477
vt 0.489537 0.285177
vt 0.515023 0.269443
vt 0.474890 0.175046
vt 0.682384 0.292938
vt 0.629990 0.207347
vt 0.773609 0.269779
vt 0.774815 0.228083
vt 0.879359 0.246311
vt 0.775012 0.179425
vt 0.861521 0.199857
vt 0.042645 0.292261
vt 0.098807 0.204948
vt 0.213951 0.283471
vt 0.214871 0.259759
vt 0.245195 0.286104
vt 0.273514 0.274062
vt 0.250937 0.227425
vt 0.260625 0.182808
vt 0.300207 0.181453
vt 0.322319 0.247064
vt 0.338325 0.274655
vt 0.336373 0.230494
vt 0.546162 0.257709
vt 0.509535 0.187147
vt 0.553078 0.173554
vt 0.603253 0.142033
vt 0.509821 0.124580
vt 0.722525 0.230147
vt 0.666833 0.167558
vt 0.729212 0.184899
vt 0.779505 0.112339
vt 0.815336 0.160575
vt 0.935881 0.260319
vt 0.933030 0.221216
vt 0.966455 0.215564
vt 0.904945 0.183391
vt 0.968598 0.167759
vt 0.181112 0.257709
vt 0.174196 0.173554
vt 0.223222 0.176337
vt 0.293704 0.150403
vt 0.364207 0.209760
vt 0.367948 0.161734
vt 0.413639 0.156208
vt 0.338842 0.141884
vt 0.382344 0.145216
vt 0.504434 0.080477
vt 0.485910 0.107826
vt 0.577627 0.096682
vt 0.517859 0.047799
vt 0.558578 0.046915
vt 0.632192 0.150234
vt 0.677153 0.089066
vt 0.651240 0.136526
vt 0.703867 0.097289
vt 0.705780 0.049924
vt 0.738243 0.090256
vt 0.745466 0.051991
vt 0.865124 0.104849
vt 0.929565 0.089069
vt 0.894283 0.045361
vt 0.982569 0.131933
vt 0.949896 0.072617
vt 0.402875 0.101170
vt 0.452496 0.157028
vt 0.324990 0.080997
vt 0.355553 0.058963
vt 0.402369 0.077399
vt 0.324194 0.098060
vt 0.352051 0.026971
vt 0.378427 0.030710
vt 0.095082 0.150234
vt 0.125412 0.127528
vt 0.150071 0.076754
vt 0.176571 0.112775
vt 0.217721 0.083229
vt 0.173299 0.031566
vt 0.206121 0.050913
vt 0.239823 0.103506
vt 0.267454 0.154342
vn -0.0697 0.9974 0.0174
vn 0.1486 0.9824 0.1134
vn -0.3307 0.9416 0.0632
vn 0.3659 0.9305 -0.0187
vn -0.3346 0.9358 0.1111
vn 0.7223 0.6854 -0.0924
vn 0.6282 0.7764 -0.0501
vn -0.4746 0.7578 -0.4478
vn 0.5236 0.8493 -0.0675
vn 0.3796 0.8411 -0.3852
vn 0.4954 0.4828 -0.7221
vn 0.9863 0.0807 -0.1439
vn 0.3346 0.9128 -0.2342
vn -0.4856 0.8740 -0.0185
vn -0.6900 0.7016 -0.1778
vn -0.7427 0.6170 -0.2600
vn -0.7290 0.3281 -0.6007
vn -0.7954 0.2715 -0.5419
vn -0.6378 0.1745 -0.7502
vn 0.2669 -0.0851 -0.9600
vn -0.2917 -0.1159 -0.9495
vn -0.5874 0.0078 -0.8093
vn -0.8172 -0.1014 -0.5673
vn -0.7536 0.6469 0.1162
vn -0.9426 0.2839 -0.1759
vn -0.9577 0.2517 0.1392
vn -0.7545 0.5538 0.3521
vn -0.7751 0.3233 0.5428
vn -0.9997 -0.0225 0.0026
vn -0.9407 -0.0286 0.3381
vn -0.6365 -0.0222 0.7710
vn -0.5591 0.8284 0.0335
vn -0.2961 0.9343 -0.1984
vn -0.1181 0.9853 -0.1230
vn -0.7588 0.6176 0.2066
vn -0.4763 0.7651 0.4334
vn -0.7916 0.2553 0.5551
vn -0.6382 0.1737 0.7500
vn 0.4932 0.4828 0.7236
vn 0.2780 -0.0884 0.9565
vn -0.2985 -0.1162 0.9473
vn 0.3514 0.9331 -0.0769
vn 0.6135 0.7853 0.0833
vn 0.3664 0.9207 0.1343
vn 0.5020 0.8195 0.2765
vn 0.9826 0.0909 0.1619
vn 0.3787 0.8786 0.2909
vn 0.7789 -0.2391 -0.5798
vn 0.5667 0.2297 -0.7913
vn 0.8623 0.4151 -0.2902
vn 0.7905 0.4946 -0.3613
vn 0.2710 0.6574 -0.7031
vn 0.4691 0.5483 -0.6923
vn 0.5011 0.3032 -0.8105
vn 0.7802 -0.0578 -0.6228
vn -0.1842 -0.2387 -0.9535
vn -0.9676 -0.1827 -0.1744
vn -0.8643 -0.4771 -0.1594
vn -0.8797 -0.3450 0.3273
vn -0.5587 -0.8128 -0.1647
vn -0.6802 -0.7143 0.1648
vn -0.1595 -0.2550 0.9537
vn 0.7629 0.1680 0.6244
vn 0.3082 0.5693 0.7622
vn 0.4905 0.5594 0.6682
vn 0.2794 0.6465 0.7099
vn 0.5509 0.2493 0.7965
vn 0.7653 -0.1702 0.6208
vn 0.7909 -0.2832 0.5425
vn 0.7897 0.4204 0.4468
vn 0.7276 0.6757 0.1186
vn 0.8553 0.3412 0.3900
vn 0.2753 -0.0853 -0.9576
vn 0.5310 0.0033 -0.8474
vn 0.2284 -0.2235 -0.9476
vn 0.0949 -0.4948 -0.8638
vn 0.7620 -0.1960 -0.6172
vn -0.6395 -0.4465 -0.6259
vn -0.2011 -0.5619 -0.8024
vn -0.4439 -0.7632 -0.4695
vn -0.2819 -0.9580 0.0532
vn -0.5160 -0.4543 0.7262
vn -0.4317 -0.7769 0.4584
vn -0.1840 -0.5747 0.7974
vn 0.2873 -0.0608 0.9559
vn 0.2187 -0.2248 0.9495
vn 0.6070 -0.0825 0.7904
vn 0.8416 -0.3030 0.4471
vn 0.9863 0.1651 0.0054
vn 0.8000 -0.5983 -0.0454
vn 0.8357 -0.3660 -0.4096
vn 0.8636 -0.4481 0.2312
vn 0.8454 -0.5208 -0.1182
vn 0.9120 -0.3177 -0.2593
vn 0.9695 0.1962 -0.1468
vn 0.2921 -0.7073 -0.6438
vn 0.7368 -0.6732 0.0630
vn 0.3364 -0.9188 -0.2065
vn -0.0120 -0.8872 -0.4612
vn -0.1286 -0.9700 -0.2065
vn 0.1600 -0.9862 0.0421
vn -0.0017 -0.9091 0.4166
vn 0.1166 -0.5945 0.7956
vn 0.3055 -0.8373 0.4534
vn 0.8928 -0.2719 0.3592
vn 0.9680 0.2145 0.1301
vn 0.4257 -0.5334 0.7310
usemtl Weird_Thing
s 1
f 11/1/1 17/2/2 16/3/3
f 44/4/4 17/2/2 11/1/1
f 17/2/2 18/5/5 16/3/3
f 44/4/4 19/6/6 17/2/2
f 17/2/2 20/7/7 18/5/5
f 20/7/7 15/8/8 18/5/5
f 19/6/6 20/7/7 17/2/2
f 47/9/9 21/10/10 44/4/4
f 44/4/4 21/10/10 19/6/6
f 20/7/7 22/11/11 15/8/8
f 19/6/6 23/12/12 20/7/7
f 20/7/7 23/12/12 22/11/11
f 47/9/9 48/13/13 21/10/10
f 16/14/3 25/15/14 11/16/1
f 16/14/3 26/17/15 25/15/14
f 26/17/15 14/18/16 25/15/14
f 16/14/3 18/19/5 26/17/15
f 18/19/5 15/20/8 26/17/15
f 26/17/15 27/21/17 14/18/16
f 26/17/15 28/22/18 27/21/17
f 15/20/8 28/22/18 26/17/15
f 29/23/19 28/22/18 15/20/8
f 22/24/11 29/23/19 15/20/8
f 22/24/11 24/25/20 29/23/19
f 29/23/19 65/26/21 28/22/18
f 30/27/22 53/28/23 27/29/17
f 14/30/16 31/31/24 25/32/14
f 33/33/25 31/31/24 14/30/16
f 31/31/24 32/34/26 13/35/27
f 27/29/17 33/33/25 14/30/16
f 33/33/25 32/34/26 31/31/24
f 32/34/26 37/36/28 13/35/27
f 53/28/23 33/33/25 27/29/17
f 33/33/25 54/37/29 32/34/26
f 32/34/26 55/38/30 37/36/28
f 55/38/30 74/39/31 37/36/28
f 25/40/14 34/41/32 11/42/1
f 31/43/24 34/41/32 25/40/14
f 13/44/27 34/41/32 31/43/24
f 34/41/32 36/45/33 12/46/34
f 13/44/27 35/47/35 34/41/32
f 35/47/35 36/45/33 34/41/32
f 37/48/28 35/47/35 13/44/27
f 35/47/35 38/49/36 36/45/33
f 37/48/28 39/50/37 35/47/35
f 39/50/37 38/49/36 35/47/35
f 39/50/37 40/51/38 38/49/36
f 40/51/38 45/52/39 38/49/36
f 40/51/38 7/53/40 45/52/39
f 39/50/37 57/54/41 40/51/38
f 34/55/32 12/56/34 11/57/1
f 12/56/34 41/58/42 11/57/1
f 41/58/42 44/59/4 11/57/1
f 36/60/33 41/58/42 12/56/34
f 36/60/33 43/61/43 41/58/42
f 41/58/42 42/62/44 44/59/4
f 38/63/36 43/61/43 36/60/33
f 41/58/42 46/64/45 42/62/44
f 43/61/43 46/64/45 41/58/42
f 38/63/36 45/65/39 43/61/43
f 42/62/44 47/9/9 44/59/4
f 45/65/39 59/66/46 43/61/43
f 43/61/43 59/66/46 46/64/45
f 46/64/45 10/67/47 42/62/44
f 10/67/47 47/9/9 42/62/44
f 86/68/48 4/69/49 83/70/50
f 82/71/51 48/13/13 47/9/9
f 82/71/51 49/72/52 48/13/13
f 49/72/52 21/10/10 48/13/13
f 50/73/53 19/6/6 21/10/10
f 49/72/52 50/73/53 21/10/10
f 50/73/53 23/12/12 19/6/6
f 82/71/51 4/69/49 49/72/52
f 50/73/53 51/74/54 23/12/12
f 51/74/54 22/11/11 23/12/12
f 49/72/52 51/74/54 50/73/53
f 51/74/54 24/25/20 22/11/11
f 86/68/48 88/75/55 4/69/49
f 4/69/49 51/74/54 49/72/52
f 24/25/20 65/26/21 29/23/19
f 65/26/21 30/76/22 28/22/18
f 30/76/22 27/21/17 28/22/18
f 68/77/56 30/76/22 65/26/21
f 69/78/57 33/33/25 53/28/23
f 69/78/57 54/37/29 33/33/25
f 69/78/57 71/79/58 54/37/29
f 54/37/29 55/38/30 32/34/26
f 71/79/58 56/80/59 54/37/29
f 56/80/59 55/38/30 54/37/29
f 73/81/60 8/82/61 71/79/58
f 8/82/61 56/80/59 71/79/58
f 74/83/31 39/50/37 37/48/28
f 57/54/41 39/50/37 74/83/31
f 58/84/62 57/54/41 74/83/31
f 57/54/41 7/53/40 40/51/38
f 7/53/40 6/85/63 45/65/39
f 6/85/63 59/66/46 45/65/39
f 78/86/64 60/87/65 6/85/63
f 6/85/63 60/87/65 59/66/46
f 60/87/65 46/64/45 59/66/46
f 78/86/64 61/88/66 60/87/65
f 78/86/64 80/89/67 61/88/66
f 61/88/66 46/64/45 60/87/65
f 61/88/66 10/67/47 46/64/45
f 5/90/68 62/91/69 80/89/67
f 80/89/67 63/92/70 61/88/66
f 61/88/66 63/92/70 10/67/47
f 63/92/70 3/93/71 10/67/47
f 3/93/71 47/9/9 10/67/47
f 62/91/69 84/94/72 80/89/67
f 51/74/54 64/95/73 24/25/20
f 24/25/20 64/95/73 65/26/21
f 67/96/74 66/97/75 64/95/73
f 64/95/73 66/97/75 65/26/21
f 51/74/54 4/69/49 64/95/73
f 4/69/49 67/96/74 64/95/73
f 66/97/75 68/77/56 65/26/21
f 88/75/55 67/96/74 4/69/49
f 66/97/75 94/98/76 68/77/56
f 67/96/74 92/99/77 66/97/75
f 92/99/77 67/96/74 88/75/55
f 68/77/56 70/100/78 30/76/22
f 53/28/23 70/100/78 69/78/57
f 70/100/78 71/79/58 69/78/57
f 30/76/22 70/100/78 53/28/23
f 68/77/56 52/101/79 70/100/78
f 70/100/78 72/102/80 71/79/58
f 52/101/79 72/102/80 70/100/78
f 72/102/80 73/81/60 71/79/58
f 73/81/60 97/103/81 8/104/61
f 56/80/59 74/105/31 55/38/30
f 56/80/59 75/106/82 74/105/31
f 75/106/82 58/107/62 74/105/31
f 56/80/59 76/108/83 75/106/82
f 8/82/61 76/108/83 56/80/59
f 75/106/82 9/109/84 58/107/62
f 76/108/83 9/109/84 75/106/82
f 57/54/41 77/110/85 7/53/40
f 77/110/85 6/85/63 7/53/40
f 77/110/85 78/86/64 6/85/63
f 77/110/85 81/111/86 79/112/87
f 57/54/41 81/111/86 77/110/85
f 77/110/85 80/89/67 78/86/64
f 79/112/87 80/89/67 77/110/85
f 58/84/62 81/111/86 57/54/41
f 79/112/87 5/90/68 80/89/67
f 79/112/87 89/113/88 5/90/68
f 80/89/67 84/94/72 63/92/70
f 47/9/9 3/93/71 82/71/51
f 3/93/71 83/70/50 82/71/51
f 63/92/70 84/94/72 3/93/71
f 85/114/89 83/70/50 3/93/71
f 84/94/72 85/114/89 3/93/71
f 83/70/50 4/69/49 82/71/51
f 84/94/72 62/91/69 85/114/89
f 85/114/89 86/68/48 83/70/50
f 85/114/89 87/115/90 86/68/48
f 5/90/68 89/113/88 62/91/69
f 86/68/48 91/116/91 88/75/55
f 89/113/88 1/117/92 62/91/69
f 62/91/69 87/115/90 85/114/89
f 90/118/93 91/116/91 87/115/90
f 87/115/90 91/116/91 86/68/48
f 1/117/92 87/115/90 62/91/69
f 2/119/94 92/99/77 101/120/95
f 101/120/95 92/99/77 88/75/55
f 93/121/96 66/97/75 92/99/77
f 2/119/94 93/121/96 92/99/77
f 93/121/96 94/98/76 66/97/75
f 102/122/97 103/123/98 2/119/94
f 103/123/98 93/121/96 2/119/94
f 94/98/76 52/124/79 68/77/56
f 93/125/96 52/101/79 94/126/76
f 93/125/96 95/127/99 52/101/79
f 95/127/99 72/102/80 52/101/79
f 93/125/96 103/128/98 95/127/99
f 95/127/99 96/129/100 72/102/80
f 96/129/100 97/103/81 72/102/80
f 97/103/81 73/81/60 72/102/80
f 103/128/98 107/130/101 95/127/99
f 107/130/101 96/129/100 95/127/99
f 96/129/100 107/130/101 97/103/81
f 97/131/81 76/108/83 8/82/61
f 97/131/81 98/132/102 76/108/83
f 107/133/101 98/132/102 97/131/81
f 98/132/102 9/109/84 76/108/83
f 98/132/102 99/134/103 9/109/84
f 107/133/101 100/135/104 98/132/102
f 100/135/104 99/134/103 98/132/102
f 91/116/91 101/136/95 88/137/55
f 90/118/93 101/136/95 91/116/91
f 87/115/90 1/117/92 90/118/93
f 1/117/92 101/136/95 90/118/93
f 106/138/105 102/139/97 2/140/94
f 101/136/95 106/138/105 2/140/94
f 1/117/92 104/141/106 101/136/95
f 101/136/95 104/141/106 106/138/105
f 102/139/97 107/142/101 103/143/98
f 89/113/88 104/141/106 1/117/92
f 9/144/84 99/145/103 58/84/62
f 99/145/103 81/111/86 58/84/62
f 100/146/104 105/147/107 99/145/103
f 99/145/103 105/147/107 81/111/86
f 105/147/107 79/112/87 81/111/86
f 106/148/105 105/147/107 100/146/104
f 106/148/105 79/112/87 105/147/107
f 107/149/101 102/150/97 100/146/104
f 100/146/104 102/150/97 106/148/105
f 106/148/105 104/151/106 79/112/87
f 79/112/87 104/151/106 89/152/88
