# Blender v3.1.2 OBJ File: 'FTSNSS.blend'
# www.blender.org
o Door_L_Cube.018
v -1.080466 0.493441 -1.293446
v -1.080466 2.660453 -1.293446
v -1.080465 0.493441 -0.249066
v -1.080465 2.660453 -0.249066
v -1.154346 0.493441 -1.293446
v -1.154346 2.660453 -1.293446
v -1.154346 0.493441 -0.249066
v -1.154346 2.660453 -0.249066
v -1.080465 0.493441 -0.775106
v -1.080465 2.660453 -0.939938
v -1.080466 1.262009 -1.114466
v -1.080465 1.262009 -0.939938
v -1.080465 2.660453 -0.612754
v -1.080465 1.259879 -0.440381
v -1.080465 1.259879 -0.612754
v -1.154346 2.660453 -0.612752
v -1.154346 2.660453 -0.939940
v -1.154346 0.493441 -0.775123
vt 0.500000 0.500000
vt 0.500000 1.000000
vt 0.330757 1.000000
vt 0.330757 0.677334
vt 0.414313 0.677334
vt 0.251843 0.500000
vt 0.913630 0.500000
vt 0.913630 1.000000
vt 0.706815 1.000000
vt 0.706815 0.500000
vt 0.500000 0.000000
vt 0.500000 0.500000
vt 0.325884 0.500000
vt 0.169242 0.500000
vt 0.000000 0.500000
vt 0.000000 0.000000
vt 0.248149 0.000000
vt 0.706815 0.000000
vt 0.706815 0.500000
vt 0.500000 0.500000
vt 0.500000 0.000000
vt 0.706815 0.000000
vt 0.913630 0.000000
vt 0.913630 0.251851
vt 0.706815 0.251843
vt 0.706815 0.500000
vt 0.706815 0.674117
vt 0.500000 0.674116
vt 0.091593 0.676842
vt 0.174117 0.676842
vt 0.174117 1.000000
vt 0.000000 1.000000
vt 0.000000 0.500000
vt 0.500000 0.830758
vt 0.706815 0.830757
vt 0.706815 1.000000
vt 0.500000 1.000000
vt 0.913630 0.500000
vt 0.706815 0.500000
vn 1.0000 0.0000 -0.0000
vn 0.0000 0.0000 1.0000
vn -1.0000 0.0000 0.0000
vn 0.0000 0.0000 -1.0000
vn 0.0000 -1.0000 0.0000
vn 0.0000 1.0000 0.0000
s off
f 1/1/1 2/2/1 10/3/1 12/4/1 11/5/1 9/6/1
f 3/7/2 4/8/2 8/9/2 7/10/2
f 7/11/3 8/12/3 16/13/3 17/14/3 6/15/3 5/16/3 18/17/3
f 5/18/4 6/19/4 2/20/4 1/21/4
f 3/22/5 7/23/5 18/24/5 9/25/5
f 8/12/6 4/26/6 13/27/6 16/28/6
f 14/29/1 15/30/1 13/31/1 4/32/1 3/33/1 9/6/1
f 17/34/6 10/35/6 2/36/6 6/37/6
f 9/25/5 18/24/5 5/38/5 1/39/5
f 9/6/1 11/5/1 12/4/1 10/3/1 13/31/1 15/30/1 14/29/1
f 16/28/6 13/27/6 10/35/6 17/34/6
