# Blender 3.1.0
# www.blender.org
mtllib Stage2.mtl
o Cube.002
v -7.107336 0.479629 2.179869
v -7.063275 0.667084 2.210016
v -7.107336 0.479629 4.398207
v -7.063275 0.667084 4.368060
v -6.110277 0.479629 2.179869
v -5.685126 0.479629 2.470761
v -6.000240 0.479629 2.189781
v -5.897702 0.479629 2.218842
v -5.809650 0.479629 2.265070
v -5.742085 0.479629 2.325315
v -5.699613 0.479629 2.395473
v -5.729187 0.667084 2.472737
v -6.113165 0.667084 2.210016
v -5.742539 0.667084 2.403343
v -5.780572 0.667084 2.340519
v -5.841074 0.667084 2.286571
v -5.919922 0.667084 2.245175
v -6.011742 0.667084 2.219152
v -5.685126 0.479629 4.107316
v -6.110278 0.479629 4.398207
v -5.699613 0.479629 4.182604
v -5.742085 0.479629 4.252761
v -5.809650 0.479629 4.313007
v -5.897702 0.479629 4.359235
v -6.000240 0.479629 4.388295
v -6.113165 0.667084 4.368060
v -5.729187 0.667084 4.105340
v -6.011742 0.667084 4.358924
v -5.919922 0.667084 4.332902
v -5.841074 0.667084 4.291506
v -5.780572 0.667084 4.237558
v -5.742539 0.667084 4.174734
v -7.107336 0.667084 4.398207
v -7.107336 0.667084 2.179869
v -5.699613 0.667084 2.395473
v -5.685126 0.667084 2.470761
v -5.742085 0.667084 2.325315
v -5.809650 0.667084 2.265070
v -5.897702 0.667084 2.218842
v -6.000240 0.667084 2.189781
v -6.110277 0.667084 2.179869
v -6.000240 0.667084 4.388295
v -6.110277 0.667084 4.398207
v -5.897702 0.667084 4.359235
v -5.809650 0.667084 4.313007
v -5.742085 0.667084 4.252761
v -5.699613 0.667084 4.182604
v -5.685126 0.667084 4.107316
v -7.107336 2.736767 4.398207
v -7.107336 2.736767 2.179869
v -7.063275 2.736767 4.368060
v -7.063275 2.736767 2.210016
vn 1.4615 -0.0000 -0.0000
vn -0.0000 1.0000 -0.0000
vn -1.4615 -0.0000 -0.0000
vn -0.0000 -0.0000 -1.0000
vn -0.0000 -0.0000 1.0000
vn 1.4490 -0.0000 -0.1305
vn 1.3503 -0.0000 -0.3827
vn 1.1595 -0.0000 -0.6088
vn 0.8897 -0.0000 -0.7934
vn 0.5593 -0.0000 -0.9239
vn 0.1908 -0.0000 -0.9914
vn 0.1908 -0.0000 0.9914
vn 0.5593 -0.0000 0.9239
vn 0.8897 -0.0000 0.7934
vn 1.1595 -0.0000 0.6088
vn 1.3503 -0.0000 0.3827
vn 1.4490 -0.0000 0.1305
vn -0.0000 -1.0000 -0.0000
vn 1.0335 -0.0000 -0.7071
vn 1.0335 -0.0000 0.7071
vt 0.000000 0.000000
vt 0.042833 0.515754
vt 0.729238 0.493111
vt 0.513777 0.993111
vt 0.959566 0.493112
vt 0.979810 0.493111
vt 0.506889 0.000000
vt 0.128500 0.515754
vt 0.729238 1.000000
vt 0.513777 0.500000
vt 0.979810 0.000000
vt 0.959566 0.493112
vt 0.042833 0.669275
vt 0.885119 0.493111
vt 0.042833 0.936706
vt 0.951588 0.559580
vt 0.042833 0.686610
vt 0.902322 0.495376
vt 0.042833 0.703550
vt 0.918353 0.502017
vt 0.042833 0.983706
vt 0.042833 0.718939
vt 0.932119 0.512580
vt 0.042833 0.969940
vt 0.942682 0.526346
vt 0.042833 0.953909
vt 0.949323 0.542377
vt 0.722350 0.933080
vt 0.662318 0.993111
vt 0.720262 0.948936
vt 0.714316 0.963292
vt 0.704857 0.975619
vt 0.692530 0.985078
vt 0.678175 0.991024
vt 0.042833 0.562755
vt 0.951588 0.933531
vt 0.128500 0.669275
vt 0.885119 1.000000
vt 0.042833 0.545551
vt 0.949323 0.950735
vt 0.042833 0.529520
vt 0.942682 0.966766
vt 0.128500 0.718939
vt 0.042833 0.515754
vt 0.932119 0.980532
vt 0.128500 0.703550
vt 0.918353 0.991095
vt 0.128500 0.686610
vt 0.902322 0.997735
vt 0.662318 0.500000
vt 0.722350 0.560032
vt 0.678175 0.502088
vt 0.692530 0.508034
vt 0.704857 0.517493
vt 0.714316 0.529820
vt 0.720262 0.544175
vt 0.085667 0.515754
vt 0.506889 0.042833
vt 0.506889 0.493111
vt 0.951588 0.493112
vt 0.085667 0.515754
vt 0.000000 0.042833
vt 0.506889 1.000000
vt 0.967545 0.493112
vt 0.000000 0.953909
vt 0.726973 0.950735
vt 0.000000 0.936706
vt 0.729238 0.933531
vt 0.000000 0.969940
vt 0.720333 0.966766
vt 0.000000 0.983706
vt 0.085667 0.718939
vt 0.709770 0.980532
vt 0.085667 0.703550
vt 0.696004 0.991095
vt 0.085667 0.686610
vt 0.679973 0.997735
vt 0.085667 0.669275
vt 0.662769 1.000000
vt 0.085667 0.686610
vt 0.679973 0.495376
vt 0.085667 0.669275
vt 0.662769 0.493111
vt 0.085667 0.703550
vt 0.696004 0.502017
vt 0.085667 0.718939
vt 0.000000 0.515754
vt 0.709770 0.512580
vt 0.000000 0.529520
vt 0.720333 0.526346
vt 0.000000 0.545551
vt 0.726973 0.542377
vt 0.000000 0.562755
vt 0.729238 0.559580
vt 0.506888 0.515754
vt 0.986698 0.506888
vt 0.951588 0.966033
vt 0.000000 0.515754
vt 0.986698 0.000000
vt 0.967544 0.966033
vt 0.979810 0.500000
vt 0.506888 0.000000
vt 0.959566 0.966033
vt 0.979810 0.006889
vt 0.959566 0.966033
vt 0.506888 0.493111
s 0
usemtl Table_Brown
f 6/15/1 36/67/1 48/93/1 19/35/1
usemtl Monitor_Beige_Colour_2
f 26/50/2 28/52/2 29/53/2 30/54/2 31/55/2 32/56/2 27/51/2 12/28/2 14/30/2 15/31/2 16/32/2 17/33/2 18/34/2 13/29/2 2/4/2 4/10/2
f 3/7/3 33/58/3 34/62/3 1/1/3
usemtl Table_Brown
f 1/2/4 34/61/4 41/78/4 5/13/4
f 20/37/5 43/82/5 33/57/5 3/8/5
f 36/67/6 6/15/6 11/26/6 35/65/6
f 35/65/7 11/26/7 10/24/7 37/69/7
f 37/69/8 10/24/8 9/21/8 38/71/8
f 38/72/9 9/22/9 8/19/9 39/74/9
f 39/74/10 8/19/10 7/17/10 40/76/10
f 40/76/11 7/17/11 5/13/11 41/78/11
f 43/82/12 20/37/12 25/48/12 42/80/12
f 42/80/13 25/48/13 24/46/13 44/84/13
f 44/84/14 24/46/14 23/43/14 45/86/14
f 45/87/15 23/44/15 22/41/15 46/89/15
f 46/89/16 22/41/16 21/39/16 47/91/16
f 47/91/17 21/39/17 19/35/17 48/93/17
usemtl Monitor_Beige_Colour_2
f 5/14/18 7/18/18 8/20/18 9/23/18 10/25/18 11/27/18 6/16/18 19/36/18 21/40/18 22/42/18 23/45/18 24/47/18 25/49/18 20/38/18 3/9/18 1/3/18
f 34/62/3 33/58/3 49/95/3 50/98/3
usemtl Table_Brown
f 14/30/2 12/28/2 36/68/2 35/66/2
f 15/31/2 14/30/2 35/66/2 37/70/2
f 16/32/2 15/31/2 37/70/2 38/73/2
f 17/33/2 16/32/2 38/73/2 39/75/2
f 18/34/2 17/33/2 39/75/2 40/77/2
f 13/29/2 18/34/2 40/77/2 41/79/2
f 28/52/2 26/50/2 43/83/2 42/81/2
f 29/53/2 28/52/2 42/81/2 44/85/2
f 30/54/2 29/53/2 44/85/2 45/88/2
f 31/55/2 30/54/2 45/88/2 46/90/2
f 32/56/2 31/55/2 46/90/2 47/92/2
f 27/51/2 32/56/2 47/92/2 48/94/2
f 2/4/2 13/29/2 41/79/2 34/63/2
f 12/28/2 27/51/2 48/94/2 36/68/2
f 26/50/2 4/10/2 33/59/2 43/83/2
f 51/101/2 52/104/2 50/99/2 49/96/2
f 2/5/19 34/64/19 50/100/19 52/105/19
f 4/11/1 2/6/1 52/106/1 51/102/1
f 33/60/20 4/12/20 51/103/20 49/97/20
