# Blender v3.1.2 OBJ File: 'FTSNSS.blend'
# www.blender.org
o Window.001_Cube.003
v 1.024479 1.432710 -1.473335
v 1.024479 2.624567 -1.473335
v 1.024479 1.432710 -2.622152
v 1.024479 2.624567 -2.622152
v 1.100552 1.432710 -1.473335
v 1.100552 2.624567 -1.473335
v 1.100552 1.432710 -2.622152
v 1.100552 2.624567 -2.622152
vt 0.500000 0.500000
vt 0.500000 1.000000
vt 0.000000 1.000000
vt 0.000000 0.500000
vt 0.887191 0.500000
vt 0.887191 1.000000
vt 0.693595 1.000000
vt 0.693595 0.500000
vt 0.500000 0.000000
vt 0.500000 0.500000
vt 0.000000 0.500000
vt 0.000000 0.000000
vt 0.693595 0.000000
vt 0.693595 0.500000
vt 0.500000 0.500000
vt 0.500000 0.000000
vt 0.693595 0.000000
vt 0.887191 0.000000
vt 0.887191 0.500000
vt 0.693595 0.500000
vt 0.693595 0.500000
vt 0.693595 1.000000
vt 0.500000 1.000000
vn -1.0000 0.0000 0.0000
vn 0.0000 0.0000 -1.0000
vn 1.0000 0.0000 0.0000
vn 0.0000 0.0000 1.0000
vn 0.0000 -1.0000 0.0000
vn 0.0000 1.0000 0.0000
s off
f 1/1/1 2/2/1 4/3/1 3/4/1
f 3/5/2 4/6/2 8/7/2 7/8/2
f 7/9/3 8/10/3 6/11/3 5/12/3
f 5/13/4 6/14/4 2/15/4 1/16/4
f 3/17/5 7/18/5 5/19/5 1/20/5
f 8/10/6 4/21/6 2/22/6 6/23/6
